<?xml version="1.0" encoding="utf-8"?>
<!-- Generator: Adobe Illustrator 25.0.1, SVG Export Plug-In . SVG Version: 6.00 Build 0)  -->
<svg version="1.1" id="Laag_1" xmlns="http://www.w3.org/2000/svg" xmlns:xlink="http://www.w3.org/1999/xlink" x="0px" y="0px"
	 viewBox="0 0 283.46 283.46" style="enable-background:new 0 0 283.46 283.46;" xml:space="preserve">
<style type="text/css">
	.st0{fill:#F0802D;}
	.st1{fill:#010202;}
	.st2{opacity:0.75;fill:#010202;}
	.st3{opacity:0.5;fill:#010202;}
</style>
<g>
	<g>
		<path class="st0" d="M85.23,95.43c14.27,0,25.68,11.48,25.68,25.75c0,14.27-11.41,25.61-25.68,25.61
			c-14.27,0-25.61-11.34-25.61-25.61C59.62,106.91,70.96,95.43,85.23,95.43z M85.23,137.52c8.99,0,16.41-7.35,16.41-16.33
			s-7.42-16.48-16.41-16.48c-8.99,0-16.34,7.49-16.34,16.48S76.24,137.52,85.23,137.52z"/>
		<path d="M142.29,95.43c6.42,0,12.56,2.5,17.41,6.63c0.57,0.57,0.64,1.43,0.07,2l-4.42,4.64c-0.57,0.57-1.21,0.57-1.85,0
			c-3.07-2.71-6.85-4.14-10.77-4.14c-8.92,0-15.98,7.63-15.98,16.55c0,8.84,7.06,16.33,16.05,16.33c3.99,0,7.06-1.21,8.49-1.78
			v-6.06h-5.71c-0.78,0-1.35-0.57-1.35-1.28v-5.63c0-0.79,0.57-1.36,1.35-1.36h13.7c0.71,0,1.28,0.64,1.28,1.36v18.26
			c0,0.57-0.29,0.93-0.57,1.14c0,0-7.35,4.64-17.69,4.64c-14.2,0-25.61-11.27-25.61-25.54C116.69,106.91,128.1,95.43,142.29,95.43z"
			/>
		<path d="M171.04,97.5c0-0.71,0.57-1.36,1.36-1.36h6.56c0.71,0,1.36,0.64,1.36,1.36v40.02h18.19c0.79,0,1.36,0.64,1.36,1.36v5.85
			c0,0.71-0.57,1.36-1.36,1.36H172.4c-0.78,0-1.36-0.64-1.36-1.36V97.5z"/>
	</g>
	<g>
		<path d="M62.42,174.53c2.69,0,4.84,2.16,4.84,4.84c0,2.69-2.14,4.81-4.84,4.81c-2.68,0-4.82-2.12-4.82-4.81
			C57.59,176.68,59.74,174.53,62.42,174.53z M62.42,183.58c2.34,0,4.25-1.88,4.25-4.22s-1.9-4.25-4.25-4.25s-4.23,1.9-4.23,4.25
			S60.07,183.58,62.42,183.58z"/>
		<path d="M68.88,178.85c0-0.09,0.08-0.17,0.19-0.17h0.13c0.09,0,0.15,0.05,0.16,0.13l0.05,0.58c0.17-0.19,0.91-0.84,1.98-0.84
			c1.5,0,2.16,0.95,2.16,2.45v2.87c0,0.09-0.08,0.17-0.17,0.17h-0.24c-0.09,0-0.17-0.08-0.17-0.17V181c0-1.23-0.58-1.88-1.59-1.88
			c-1.1,0-1.86,0.86-1.92,0.92v3.82c0,0.11-0.05,0.17-0.17,0.17h-0.25c-0.09,0-0.15-0.08-0.15-0.17V178.85z"/>
		<path d="M77.76,178.54c1.02,0,1.65,0.54,1.65,0.54v-4.25c0-0.09,0.07-0.17,0.17-0.17h0.24c0.08,0,0.16,0.08,0.16,0.17v9.03
			c0,0.09-0.08,0.17-0.17,0.17h-0.13c-0.11,0-0.17-0.05-0.19-0.17l-0.04-0.47c-0.16,0.17-0.82,0.78-1.85,0.78
			c-1.39,0-2.48-1.25-2.48-2.81C75.12,179.78,76.23,178.54,77.76,178.54z M77.64,183.63c1.17,0,1.74-0.9,1.77-0.95v-3
			c0,0-0.62-0.56-1.59-0.56c-1.23,0-2.1,0.96-2.1,2.24C75.71,182.6,76.52,183.63,77.64,183.63z"/>
		<path d="M84.27,178.54c1.41,0,2.42,1.03,2.42,2.45c0,0.21,0,0.52-0.2,0.52h-4.27c0.05,1.15,0.88,2.12,2.09,2.12
			c0.71,0,1.26-0.28,1.58-0.5c0.12-0.08,0.17-0.09,0.24,0l0.13,0.19c0.04,0.05,0.03,0.13-0.05,0.21c-0.27,0.27-1.11,0.63-1.94,0.63
			c-1.63,0-2.64-1.26-2.64-2.83C81.63,179.82,82.64,178.54,84.27,178.54z M86.11,181.04c0-1.04-0.63-1.96-1.84-1.96
			c-1.18,0-1.97,0.86-2.04,1.96H86.11z"/>
		<path d="M88.28,178.85c0-0.09,0.08-0.17,0.17-0.17h0.16c0.08,0,0.15,0.05,0.16,0.15l0.05,0.55c0.13-0.19,0.67-0.83,1.67-0.83
			c0.43,0,0.72,0.12,0.83,0.16c0.12,0.04,0.19,0.13,0.15,0.24l-0.11,0.27c-0.04,0.09-0.12,0.11-0.21,0.07
			c-0.07-0.03-0.33-0.16-0.7-0.16c-1.05,0-1.55,0.84-1.59,0.92v3.82c0,0.11-0.05,0.17-0.17,0.17h-0.27c-0.09,0-0.15-0.08-0.15-0.17
			V178.85z"/>
		<path d="M92.62,178.85c0-0.09,0.08-0.17,0.19-0.17h0.13c0.09,0,0.15,0.05,0.16,0.13l0.05,0.58c0.17-0.19,0.91-0.84,1.98-0.84
			c1.5,0,2.16,0.95,2.16,2.45v2.87c0,0.09-0.08,0.17-0.17,0.17h-0.24c-0.09,0-0.17-0.08-0.17-0.17V181c0-1.23-0.58-1.88-1.59-1.88
			c-1.1,0-1.86,0.86-1.92,0.92v3.82c0,0.11-0.05,0.17-0.17,0.17h-0.25c-0.09,0-0.15-0.08-0.15-0.17V178.85z"/>
		<path d="M101.51,178.54c1.41,0,2.42,1.03,2.42,2.45c0,0.21,0,0.52-0.2,0.52h-4.27c0.05,1.15,0.88,2.12,2.09,2.12
			c0.71,0,1.26-0.28,1.58-0.5c0.12-0.08,0.17-0.09,0.24,0l0.13,0.19c0.04,0.05,0.03,0.13-0.05,0.21c-0.27,0.27-1.11,0.63-1.94,0.63
			c-1.63,0-2.64-1.26-2.64-2.83C98.87,179.82,99.87,178.54,101.51,178.54z M103.34,181.04c0-1.04-0.63-1.96-1.84-1.96
			c-1.18,0-1.97,0.86-2.04,1.96H103.34z"/>
		<path d="M105.51,178.85c0-0.09,0.08-0.17,0.17-0.17h0.16c0.08,0,0.13,0.05,0.15,0.13l0.07,0.58c0.15-0.2,0.76-0.84,1.85-0.84
			c0.82,0,1.42,0.35,1.75,0.98c0.16-0.21,0.91-0.98,2.01-0.98c1.46,0,2.09,0.95,2.09,2.45v2.87c0,0.09-0.08,0.17-0.17,0.17h-0.27
			c-0.08,0-0.15-0.07-0.15-0.17V181c0-1.23-0.54-1.88-1.54-1.88s-1.59,0.7-1.77,0.91c0.08,0.28,0.12,0.6,0.12,0.96v2.87
			c0,0.09-0.08,0.17-0.17,0.17h-0.25c-0.09,0-0.16-0.07-0.16-0.17V181c0-1.23-0.55-1.88-1.55-1.88c-1.08,0-1.67,0.82-1.74,0.92v3.82
			c0,0.11-0.05,0.17-0.17,0.17h-0.27c-0.09,0-0.15-0.08-0.15-0.17V178.85z"/>
		<path d="M117.99,178.54c1.41,0,2.42,1.03,2.42,2.45c0,0.21,0,0.52-0.2,0.52h-4.27c0.05,1.15,0.88,2.12,2.09,2.12
			c0.71,0,1.26-0.28,1.58-0.5c0.12-0.08,0.17-0.09,0.24,0l0.13,0.19c0.04,0.05,0.03,0.13-0.05,0.21c-0.27,0.27-1.11,0.63-1.94,0.63
			c-1.63,0-2.64-1.26-2.64-2.83C115.35,179.82,116.35,178.54,117.99,178.54z M119.82,181.04c0-1.04-0.63-1.96-1.84-1.96
			c-1.18,0-1.97,0.86-2.04,1.96H119.82z"/>
		<path d="M121.99,178.85c0-0.09,0.08-0.17,0.17-0.17h0.16c0.08,0,0.15,0.05,0.16,0.15l0.05,0.55c0.13-0.19,0.67-0.83,1.67-0.83
			c0.43,0,0.72,0.12,0.83,0.16c0.12,0.04,0.19,0.13,0.15,0.24l-0.11,0.27c-0.04,0.09-0.12,0.11-0.21,0.07
			c-0.07-0.03-0.33-0.16-0.7-0.16c-1.05,0-1.55,0.84-1.59,0.92v3.82c0,0.11-0.05,0.17-0.17,0.17h-0.27c-0.09,0-0.15-0.08-0.15-0.17
			V178.85z"/>
		<path d="M126.03,183.38l0.13-0.21c0.04-0.07,0.15-0.09,0.24-0.01c0.13,0.11,0.68,0.52,1.43,0.52c0.76,0,1.29-0.43,1.29-0.95
			c0-0.62-0.6-0.87-1.5-1.21c-0.95-0.33-1.65-0.75-1.65-1.58c0-0.59,0.52-1.39,1.75-1.39c0.71,0,1.25,0.25,1.51,0.43
			c0.08,0.05,0.11,0.16,0.05,0.25l-0.08,0.15c-0.05,0.09-0.16,0.12-0.25,0.07c-0.12-0.08-0.66-0.38-1.23-0.38
			c-0.84,0-1.15,0.5-1.15,0.86c0,0.54,0.48,0.79,1.27,1.07c1,0.38,1.89,0.71,1.89,1.69c0,0.8-0.83,1.49-1.9,1.49
			c-0.91,0-1.46-0.38-1.75-0.6C126.03,183.53,125.99,183.45,126.03,183.38z"/>
		<path d="M138.78,174.53c1.35,0,2.37,0.46,3.24,1.25c0.07,0.07,0.08,0.17,0.01,0.24c-0.07,0.08-0.15,0.16-0.21,0.23
			c-0.08,0.09-0.15,0.08-0.23,0c-0.75-0.7-1.73-1.13-2.83-1.13c-2.33,0-4.17,1.9-4.17,4.22c0,2.32,1.84,4.22,4.17,4.22
			c1.63,0,2.65-0.63,2.79-0.74v-2.52h-2.29c-0.15,0-0.17-0.05-0.17-0.17v-0.27c0-0.11,0.03-0.16,0.17-0.16h2.75
			c0.09,0,0.17,0.08,0.17,0.16v3.11c0,0.2-0.08,0.27-0.19,0.35c-0.24,0.16-1.46,0.86-3.22,0.86c-2.69,0-4.85-2.12-4.85-4.81
			C133.93,176.68,136.09,174.53,138.78,174.53z"/>
		<path d="M144.04,178.85c0-0.09,0.08-0.17,0.17-0.17h0.16c0.08,0,0.15,0.05,0.16,0.15l0.05,0.55c0.13-0.19,0.67-0.83,1.67-0.83
			c0.43,0,0.72,0.12,0.83,0.16c0.12,0.04,0.19,0.13,0.15,0.24l-0.11,0.27c-0.04,0.09-0.12,0.11-0.21,0.07
			c-0.07-0.03-0.33-0.16-0.7-0.16c-1.04,0-1.55,0.84-1.59,0.92v3.82c0,0.11-0.05,0.17-0.17,0.17h-0.27c-0.09,0-0.15-0.08-0.15-0.17
			V178.85z"/>
		<path d="M150.63,178.54c1.5,0,2.69,1.27,2.69,2.8c0,1.57-1.19,2.83-2.69,2.83c-1.51,0-2.69-1.26-2.69-2.83
			C147.94,179.82,149.12,178.54,150.63,178.54z M150.63,183.62c1.18,0,2.1-1,2.1-2.28c0-1.23-0.92-2.24-2.1-2.24
			c-1.19,0-2.12,1-2.12,2.24C148.51,182.62,149.44,183.62,150.63,183.62z"/>
		<path d="M157.21,178.54c1.41,0,2.42,1.03,2.42,2.45c0,0.21,0,0.52-0.2,0.52h-4.27c0.05,1.15,0.88,2.12,2.09,2.12
			c0.71,0,1.26-0.28,1.58-0.5c0.12-0.08,0.17-0.09,0.24,0l0.13,0.19c0.04,0.05,0.03,0.13-0.05,0.21c-0.27,0.27-1.11,0.63-1.94,0.63
			c-1.63,0-2.64-1.26-2.64-2.83C154.57,179.82,155.58,178.54,157.21,178.54z M159.04,181.04c0-1.04-0.63-1.96-1.84-1.96
			c-1.18,0-1.97,0.86-2.04,1.96H159.04z"/>
		<path d="M161.79,187.88c0,0.09-0.08,0.17-0.17,0.17h-0.23c-0.09,0-0.17-0.08-0.17-0.17v-9.03c0-0.11,0.09-0.17,0.19-0.17h0.15
			c0.09,0,0.15,0.04,0.16,0.13l0.04,0.38c0.16-0.13,0.78-0.64,1.76-0.64c1.49,0,2.58,1.25,2.58,2.81c0,1.58-1.12,2.81-2.71,2.81
			c-0.88,0-1.45-0.42-1.59-0.55V187.88z M163.32,183.61c1.3,0,2.18-0.99,2.18-2.26c0-1.25-0.82-2.25-2.04-2.25
			c-1.04,0-1.62,0.68-1.66,0.75v3.13C161.83,183.03,162.41,183.61,163.32,183.61z"/>
		<path d="M171.05,174.83c0-0.09,0.08-0.17,0.17-0.17h0.29c0.08,0,0.16,0.08,0.16,0.17v8.64h4.27c0.16,0,0.17,0.08,0.17,0.17v0.24
			c0,0.09-0.08,0.15-0.17,0.15h-4.73c-0.09,0-0.17-0.08-0.17-0.17V174.83z"/>
		<path d="M179.45,178.54c1.5,0,2.69,1.27,2.69,2.8c0,1.57-1.19,2.83-2.69,2.83c-1.51,0-2.69-1.26-2.69-2.83
			C176.76,179.82,177.94,178.54,179.45,178.54z M179.45,183.62c1.18,0,2.1-1,2.1-2.28c0-1.23-0.92-2.24-2.1-2.24
			c-1.19,0-2.12,1-2.12,2.24C177.34,182.62,178.26,183.62,179.45,183.62z"/>
		<path d="M183.78,178.85c0-0.09,0.08-0.17,0.19-0.17h0.13c0.09,0,0.15,0.05,0.16,0.13l0.05,0.58c0.17-0.19,0.91-0.84,1.98-0.84
			c1.5,0,2.16,0.95,2.16,2.45v2.87c0,0.09-0.08,0.17-0.17,0.17h-0.24c-0.09,0-0.17-0.08-0.17-0.17V181c0-1.23-0.58-1.88-1.59-1.88
			c-1.1,0-1.86,0.86-1.92,0.92v3.82c0,0.11-0.05,0.17-0.17,0.17h-0.25c-0.09,0-0.15-0.08-0.15-0.17V178.85z"/>
		<path d="M192.67,178.54c1.02,0,1.65,0.54,1.65,0.54v-4.25c0-0.09,0.07-0.17,0.17-0.17h0.24c0.08,0,0.16,0.08,0.16,0.17v9.03
			c0,0.09-0.08,0.17-0.17,0.17h-0.13c-0.11,0-0.17-0.05-0.19-0.17l-0.04-0.47c-0.16,0.17-0.82,0.78-1.85,0.78
			c-1.39,0-2.48-1.25-2.48-2.81C190.03,179.78,191.14,178.54,192.67,178.54z M192.54,183.63c1.17,0,1.74-0.9,1.77-0.95v-3
			c0,0-0.62-0.56-1.59-0.56c-1.23,0-2.1,0.96-2.1,2.24C190.62,182.6,191.42,183.63,192.54,183.63z"/>
		<path d="M199.18,178.54c1.41,0,2.42,1.03,2.42,2.45c0,0.21,0,0.52-0.2,0.52h-4.27c0.05,1.15,0.88,2.12,2.09,2.12
			c0.71,0,1.26-0.28,1.58-0.5c0.12-0.08,0.17-0.09,0.24,0l0.13,0.19c0.04,0.05,0.03,0.13-0.05,0.21c-0.27,0.27-1.11,0.63-1.94,0.63
			c-1.63,0-2.64-1.26-2.64-2.83C196.54,179.82,197.54,178.54,199.18,178.54z M201.01,181.04c0-1.04-0.63-1.96-1.84-1.96
			c-1.18,0-1.97,0.86-2.04,1.96H201.01z"/>
		<path d="M203.19,178.85c0-0.09,0.08-0.17,0.17-0.17h0.16c0.08,0,0.15,0.05,0.16,0.15l0.05,0.55c0.13-0.19,0.67-0.83,1.67-0.83
			c0.43,0,0.72,0.12,0.83,0.16c0.12,0.04,0.19,0.13,0.15,0.24l-0.11,0.27c-0.04,0.09-0.12,0.11-0.21,0.07
			c-0.07-0.03-0.33-0.16-0.7-0.16c-1.04,0-1.55,0.84-1.59,0.92v3.82c0,0.11-0.05,0.17-0.17,0.17h-0.27c-0.09,0-0.15-0.08-0.15-0.17
			V178.85z"/>
		<path d="M206.96,183.74l3.15-4.49v-0.04h-2.73c-0.09,0-0.16-0.08-0.16-0.17v-0.19c0-0.11,0.07-0.17,0.16-0.17h3.47
			c0.13,0,0.23,0.13,0.15,0.25l-3.13,4.53v0.04h2.77c0.11,0,0.17,0.07,0.17,0.17v0.19c0,0.09-0.07,0.17-0.17,0.17h-3.51
			c-0.09,0-0.16-0.07-0.16-0.15V183.74z"/>
		<path d="M214.75,178.54c1.41,0,2.42,1.03,2.42,2.45c0,0.21,0,0.52-0.2,0.52h-4.27c0.05,1.15,0.88,2.12,2.09,2.12
			c0.71,0,1.26-0.28,1.58-0.5c0.12-0.08,0.17-0.09,0.24,0l0.13,0.19c0.04,0.05,0.03,0.13-0.05,0.21c-0.27,0.27-1.11,0.63-1.94,0.63
			c-1.63,0-2.64-1.26-2.64-2.83C212.11,179.82,213.12,178.54,214.75,178.54z M216.58,181.04c0-1.04-0.63-1.96-1.84-1.96
			c-1.18,0-1.97,0.86-2.04,1.96H216.58z"/>
		<path d="M221.01,178.54c1.41,0,2.42,1.03,2.42,2.45c0,0.21,0,0.52-0.2,0.52h-4.27c0.05,1.15,0.88,2.12,2.09,2.12
			c0.71,0,1.26-0.28,1.58-0.5c0.12-0.08,0.17-0.09,0.24,0l0.13,0.19c0.04,0.05,0.03,0.13-0.05,0.21c-0.27,0.27-1.11,0.63-1.94,0.63
			c-1.63,0-2.64-1.26-2.64-2.83C218.37,179.82,219.37,178.54,221.01,178.54z M222.84,181.04c0-1.04-0.63-1.96-1.84-1.96
			c-1.18,0-1.97,0.86-2.04,1.96H222.84z"/>
		<path d="M225.01,174.83c0-0.09,0.08-0.17,0.17-0.17h0.24c0.09,0,0.17,0.08,0.17,0.17v9.03c0,0.11-0.05,0.17-0.17,0.17h-0.27
			c-0.09,0-0.15-0.08-0.15-0.17V174.83z"/>
	</g>
	<rect x="56.7" y="159.2" class="st1" width="70.67" height="4.63"/>
	<rect x="129.09" y="159.2" class="st2" width="56.89" height="4.63"/>
	<rect x="187.7" y="159.2" class="st3" width="39.07" height="4.63"/>
	<g>
		<path d="M202.94,139.42c-0.07-0.14-0.05-0.26,0.1-0.26h0.38c0.09,0,0.17,0.03,0.22,0.15l2.48,5.65h0.02l2.5-5.65
			c0.05-0.12,0.14-0.15,0.22-0.15h0.38c0.15,0,0.17,0.12,0.1,0.26l-2.98,6.61c-0.05,0.1-0.12,0.15-0.21,0.15h-0.07
			c-0.1,0-0.15-0.03-0.21-0.15L202.94,139.42z"/>
		<path d="M210.21,145.63l4.02-5.73v-0.05h-3.49c-0.12,0-0.21-0.1-0.21-0.22v-0.24c0-0.14,0.09-0.22,0.21-0.22h4.43
			c0.17,0,0.29,0.17,0.19,0.33l-4.01,5.79v0.05h3.54c0.14,0,0.22,0.08,0.22,0.22v0.24c0,0.12-0.09,0.22-0.22,0.22h-4.49
			c-0.12,0-0.21-0.09-0.21-0.19V145.63z"/>
		<path d="M216.56,139.43c-0.05-0.15-0.05-0.27,0.1-0.27h0.38c0.09,0,0.19,0.03,0.22,0.15l1.61,5.39h0.02l2.04-5.56
			c0.03-0.12,0.1-0.15,0.21-0.15h0.07c0.09,0,0.17,0.05,0.21,0.15l2.04,5.56h0.02l1.61-5.39c0.03-0.12,0.14-0.15,0.22-0.15h0.38
			c0.15,0,0.15,0.12,0.1,0.27l-2.05,6.59c-0.03,0.12-0.1,0.15-0.21,0.15h-0.07c-0.09,0-0.17-0.05-0.21-0.15l-2.07-5.77h-0.02
			l-2.05,5.77c-0.03,0.1-0.12,0.15-0.21,0.15h-0.07c-0.1,0-0.17-0.03-0.21-0.15L216.56,139.43z"/>
	</g>
</g>
</svg>
